<svg xmlns="http://www.w3.org/2000/svg"
     width="120" height="72" viewBox="0 0 120 72">
  <!-- S2T v5 FINAL master (white fill) -->
  <g fill="#FFFFFF">

    <!-- ===== S ===== -->
    <!-- top bar (outer rounded) -->
    <rect x="4" y="4" width="28" height="8" rx="2" ry="2"/>
    <!-- middle bar (sharp) -->
    <rect x="4" y="32" width="28" height="8"/>
    <!-- bottom bar (outer rounded) -->
    <rect x="4" y="60" width="28" height="8" rx="2" ry="2"/>
    <!-- left upper vertical (sharp) -->
    <rect x="4" y="6" width="8" height="34"/>
    <!-- right lower vertical (sharp) -->
    <rect x="24" y="32" width="8" height="34"/>

    <!-- ===== 2 ===== -->
    <!-- top bar (outer rounded) -->
    <rect x="42" y="4" width="28" height="8" rx="2" ry="2"/>
    <!-- upper right vertical (sharp) -->
    <rect x="62" y="6" width="8" height="26"/>
    <!-- middle bar (sharp) -->
    <rect x="42" y="32" width="28" height="8"/>
    <!-- lower left vertical (special: only outer bottom-left rounded) -->
    <!-- Implemented as a path so only the bottom-left outer corner is rounded -->
    <path d="
      M42 40
      H50
      V66
      Q50 68 48 68
      H44
      Q42 68 42 66
      Z"/>
    <!-- bottom bar (outer rounded) -->
    <rect x="42" y="60" width="28" height="8" rx="2" ry="2"/>

    <!-- ===== T ===== -->
    <!-- top bar (outer rounded, widened) -->
    <rect x="74" y="4" width="44" height="8" rx="2" ry="2"/>
    <!-- stem (sharp) -->
    <rect x="92" y="6" width="8" height="62"/>

  </g>
</svg>
